# xmcd
#
# Track frame offsets:
#       150
#       30115
#       50822
#       73070
#       90387
#       126237
#       158337
#       181942
#       201880
#       224950
#       243050
#       268822
#       285155
#       304637
#
# Disc length: 4422 seconds
#
# Revision: 1
# Processed by: cddbd v1.5.2PL0 Copyright (c) Steve Scherf et al.
# Submitted via: FreeDbEdit v0.1
#
DISCID=bf11440e
DTITLE=Magic Slim and Jimmy Johnson - Chicago Blues Guitar Heroes
DYEAR=1900
DGENRE=Blues
TTITLE0=You Can't Lose What You Never Had
TTITLE1=Grabel Road
TTITLE2=Why Does a Woman Treat a Good Man So Bad?
TTITLE3=Mama, Talk to Your Daughter
TTITLE4=Mustang Sally
TTITLE5=In the Heart of the Blues
TTITLE6=You Don't Know What Love Is
TTITLE7=Little by Little
TTITLE8=When My First Wife Quit Me
TTITLE9=Chicken Heads
TTITLE10=Cold, Cold Feeling
TTITLE11=Happy Home
TTITLE12=Heap See
TTITLE13=Missing Link
EXTD=
EXTT0=
EXTT1=
EXTT2=
EXTT3=
EXTT4=
EXTT5=
EXTT6=
EXTT7=
EXTT8=
EXTT9=
EXTT10=
EXTT11=
EXTT12=
EXTT13=
PLAYORDER=
